<?xml version="1.0" encoding="utf-8"?>
<!-- Generator: Adobe Illustrator 27.1.1, SVG Export Plug-In . SVG Version: 6.00 Build 0)  -->
<svg version="1.1" id="Layer_1" xmlns="http://www.w3.org/2000/svg" xmlns:xlink="http://www.w3.org/1999/xlink" x="0px" y="0px"
	 width="30px" height="30px" viewBox="0 0 30 30" style="enable-background:new 0 0 30 30;" xml:space="preserve">
<style type="text/css">
	.st0{fill:none;}
	.st1{fill:#004A27;}
</style>
<circle class="st0" cx="15" cy="15" r="15"/>
<g>
	<polygon class="st1" points="13.5,10 17.8,14.2 8,14.2 8,16.2 18,16.2 13.5,20.7 15,22.1 21.7,15.3 15,8.6 	"/>
	<path class="st1" d="M15,0C6.7,0,0,6.7,0,15c0,8.3,6.7,15,15,15c8.3,0,15-6.7,15-15C30,6.7,23.3,0,15,0z M15,28C7.8,28,2,22.2,2,15
		C2,7.8,7.8,2,15,2c7.2,0,13,5.8,13,13C28,22.2,22.2,28,15,28z"/>
</g>
</svg>
